<svg data-v-423bf9ae="" xmlns="http://www.w3.org/2000/svg" viewBox="0 0 223.5228348118467 60" class="font"><!----><!----><!----><g data-v-423bf9ae="" id="92a14706-74a7-4261-8828-63dba0012372" fill="black" transform="matrix(4.803843162490988,0,0,4.803843162490988,-2.9783798204260137,-20.704564232295205)"><path d="M3.44 6.99C1.83 6.99 0.74 7.81 0.74 9.06C0.74 10.68 2.38 10.99 3.42 11.14C4.20 11.28 4.89 11.40 4.89 12.11C4.89 12.68 4.31 13.06 3.51 13.06C2.66 13.06 2.04 12.63 2.02 11.97L0.62 11.97C0.63 13.24 1.81 14.13 3.47 14.13C5.12 14.13 6.30 13.27 6.30 12.03C6.30 10.37 4.56 10.08 3.58 9.90C2.79 9.74 2.16 9.63 2.16 8.92C2.16 8.40 2.69 8.04 3.42 8.04C4.21 8.04 4.76 8.46 4.79 9.07L6.13 9.07C6.13 7.84 5.01 6.99 3.44 6.99ZM14.60 11.14L13.16 11.14C12.95 12.15 12.10 12.88 11.02 12.88C9.73 12.88 8.81 11.91 8.81 10.56C8.81 9.21 9.73 8.23 11.02 8.23C12.08 8.23 12.95 8.97 13.15 9.97L14.60 9.97C14.39 8.25 12.89 6.99 11.02 6.99C8.89 6.99 7.34 8.48 7.34 10.56C7.34 12.63 8.89 14.13 11.02 14.13C12.89 14.13 14.39 12.88 14.60 11.14ZM17.36 8.72L17.36 7.11L15.93 7.11L15.93 14L17.36 14L17.36 10.60C17.36 9.18 18.35 8.34 19.95 8.34L19.95 6.93C18.73 6.93 17.82 7.59 17.36 8.72ZM22.57 5.25C22.57 4.75 22.19 4.41 21.66 4.41C21.11 4.41 20.75 4.75 20.75 5.25C20.75 5.74 21.11 6.09 21.66 6.09C22.19 6.09 22.57 5.74 22.57 5.25ZM20.94 7.11L20.94 14L22.37 14L22.37 7.11ZM28.07 6.99C27.03 6.99 26.15 7.41 25.55 8.11L25.55 7.11L24.12 7.11L24.12 16.80L25.55 16.80L25.55 13.01C26.15 13.71 27.03 14.13 28.07 14.13C30.02 14.13 31.43 12.63 31.43 10.56C31.43 8.48 30.02 6.99 28.07 6.99ZM27.76 12.88C26.47 12.88 25.55 11.91 25.55 10.56C25.55 9.21 26.47 8.23 27.76 8.23C29.04 8.23 29.96 9.21 29.96 10.56C29.96 11.91 29.04 12.88 27.76 12.88ZM36.30 7.11L34.75 7.11L34.75 5.33L33.31 5.33L33.31 7.11L32.03 7.11L32.03 8.32L33.31 8.32L33.31 14L34.75 14L34.75 8.32L36.30 8.32ZM37.41 4.31L37.41 14L38.84 14L38.84 4.31ZM45.65 7.11L43.53 11.80L41.37 7.11L39.84 7.11L42.85 13.23L41.06 16.76L42.57 16.76L47.15 7.11Z"></path></g><!----><!----></svg>